HIERARCHY
ROOT Joint0
{
  OFFSET 0.0000 0.0000 1.0000
  CHANNELS 6 Xposition Yposition Zposition Zrotation Xrotation Yrotation
  JOINT Joint1
  {
    OFFSET 0.0811 -0.0899 -0.0114
    CHANNELS 3 Zrotation Xrotation Yrotation
    JOINT Joint4
    {
      OFFSET 0.0297 -0.3677 -0.0039
      CHANNELS 3 Zrotation Xrotation Yrotation
      JOINT Joint7
      {
        OFFSET -0.0120 -0.3841 -0.0490
        CHANNELS 3 Zrotation Xrotation Yrotation
        JOINT Joint10
        {
          OFFSET 0.0247 -0.0555 0.1226
          CHANNELS 3 Zrotation Xrotation Yrotation
          End Site
          {
            OFFSET 0.0247 -0.0555 0.1226
          }
        }
      }
    }
  }
  JOINT Joint2
  {
    OFFSET -0.0773 -0.0878 -0.0084
    CHANNELS 3 Zrotation Xrotation Yrotation
    JOINT Joint5
    {
      OFFSET -0.0344 -0.3716 -0.0062
      CHANNELS 3 Zrotation Xrotation Yrotation
      JOINT Joint8
      {
        OFFSET 0.0139 -0.3835 -0.0484
        CHANNELS 3 Zrotation Xrotation Yrotation
        JOINT Joint11
        {
          OFFSET -0.0293 -0.0469 0.1263
          CHANNELS 3 Zrotation Xrotation Yrotation
          End Site
          {
            OFFSET -0.0293 -0.0469 0.1263
          }
        }
      }
    }
  }
  JOINT Joint3
  {
    OFFSET -0.0027 0.1037 -0.0232
    CHANNELS 3 Zrotation Xrotation Yrotation
    JOINT Joint6
    {
      OFFSET 0.0030 0.1296 -0.0027
      CHANNELS 3 Zrotation Xrotation Yrotation
      JOINT Joint9
      {
        OFFSET 0.0015 0.0533 0.0332
        CHANNELS 3 Zrotation Xrotation Yrotation
        JOINT Joint12
        {
          OFFSET -0.0004 0.2283 -0.0600
          CHANNELS 3 Zrotation Xrotation Yrotation
          JOINT Joint15
          {
            OFFSET 0.0048 0.0641 0.0558
            CHANNELS 3 Zrotation Xrotation Yrotation
            End Site
            {
              OFFSET 0.0048 0.0641 0.0558
            }
          }
        }
        JOINT Joint13
        {
          OFFSET 0.0787 0.1275 -0.0430
          CHANNELS 3 Zrotation Xrotation Yrotation
          JOINT Joint16
          {
            OFFSET 0.0914 0.0355 -0.0086
            CHANNELS 3 Zrotation Xrotation Yrotation
            JOINT Joint18
            {
              OFFSET 0.2512 -0.0141 -0.0294
              CHANNELS 3 Zrotation Xrotation Yrotation
              JOINT Joint20
              {
                OFFSET 0.2431 0.0092 0.0027
                CHANNELS 3 Zrotation Xrotation Yrotation
                JOINT Joint22
                {
                  OFFSET 0.1053 -0.0108 0.0234
                  CHANNELS 3 Zrotation Xrotation Yrotation
                  JOINT Joint23
                  {
                    OFFSET 0.0332 0.0042 0.0030
                    CHANNELS 3 Zrotation Xrotation Yrotation
                    JOINT Joint24
                    {
                      OFFSET 0.0234 -0.0009 0.0005
                      CHANNELS 3 Zrotation Xrotation Yrotation
                      End Site
                      {
                        OFFSET 0.0234 -0.0009 0.0005
                      }
                    }
                  }
                }
                JOINT Joint25
                {
                  OFFSET 0.1126 -0.0078 -0.0002
                  CHANNELS 3 Zrotation Xrotation Yrotation
                  JOINT Joint26
                  {
                    OFFSET 0.0317 0.0021 -0.0047
                    CHANNELS 3 Zrotation Xrotation Yrotation
                    JOINT Joint27
                    {
                      OFFSET 0.0246 -0.0008 -0.0039
                      CHANNELS 3 Zrotation Xrotation Yrotation
                      End Site
                      {
                        OFFSET 0.0246 -0.0008 -0.0039
                      }
                    }
                  }
                }
                JOINT Joint28
                {
                  OFFSET 0.0860 -0.0168 -0.0403
                  CHANNELS 3 Zrotation Xrotation Yrotation
                  JOINT Joint29
                  {
                    OFFSET 0.0158 -0.0006 -0.0114
                    CHANNELS 3 Zrotation Xrotation Yrotation
                    JOINT Joint30
                    {
                      OFFSET 0.0161 -0.0011 -0.0109
                      CHANNELS 3 Zrotation Xrotation Yrotation
                      End Site
                      {
                        OFFSET 0.0161 -0.0011 -0.0109
                      }
                    }
                  }
                }
                JOINT Joint31
                {
                  OFFSET 0.0999 -0.0111 -0.0238
                  CHANNELS 3 Zrotation Xrotation Yrotation
                  JOINT Joint32
                  {
                    OFFSET 0.0286 0.0023 -0.0053
                    CHANNELS 3 Zrotation Xrotation Yrotation
                    JOINT Joint33
                    {
                      OFFSET 0.0234 -0.0009 -0.0074
                      CHANNELS 3 Zrotation Xrotation Yrotation
                      End Site
                      {
                        OFFSET 0.0234 -0.0009 -0.0074
                      }
                    }
                  }
                }
                JOINT Joint34
                {
                  OFFSET 0.0426 -0.0219 0.0277
                  CHANNELS 3 Zrotation Xrotation Yrotation
                  JOINT Joint35
                  {
                    OFFSET 0.0185 0.0008 0.0246
                    CHANNELS 3 Zrotation Xrotation Yrotation
                    JOINT Joint36
                    {
                      OFFSET 0.0221 -0.0048 0.0152
                      CHANNELS 3 Zrotation Xrotation Yrotation
                      End Site
                      {
                        OFFSET 0.0221 -0.0048 0.0152
                      }
                    }
                  }
                }
              }
            }
          }
        }
        JOINT Joint14
        {
          OFFSET -0.0815 0.1251 -0.0492
          CHANNELS 3 Zrotation Xrotation Yrotation
          JOINT Joint17
          {
            OFFSET -0.0975 0.0385 -0.0099
            CHANNELS 3 Zrotation Xrotation Yrotation
            JOINT Joint19
            {
              OFFSET -0.2546 -0.0159 -0.0229
              CHANNELS 3 Zrotation Xrotation Yrotation
              JOINT Joint21
              {
                OFFSET -0.2519 0.0079 0.0007
                CHANNELS 3 Zrotation Xrotation Yrotation
                JOINT Joint37
                {
                  OFFSET -0.1043 -0.0103 0.0246
                  CHANNELS 3 Zrotation Xrotation Yrotation
                  JOINT Joint38
                  {
                    OFFSET -0.0341 0.0034 0.0025
                    CHANNELS 3 Zrotation Xrotation Yrotation
                    JOINT Joint39
                    {
                      OFFSET -0.0236 -0.0015 -0.0003
                      CHANNELS 3 Zrotation Xrotation Yrotation
                      End Site
                      {
                        OFFSET -0.0236 -0.0015 -0.0003
                      }
                    }
                  }
                }
                JOINT Joint40
                {
                  OFFSET -0.1123 -0.0074 -0.0003
                  CHANNELS 3 Zrotation Xrotation Yrotation
                  JOINT Joint41
                  {
                    OFFSET -0.0322 0.0016 -0.0048
                    CHANNELS 3 Zrotation Xrotation Yrotation
                    JOINT Joint42
                    {
                      OFFSET -0.0245 -0.0012 -0.0045
                      CHANNELS 3 Zrotation Xrotation Yrotation
                      End Site
                      {
                        OFFSET -0.0245 -0.0012 -0.0045
                      }
                    }
                  }
                }
                JOINT Joint43
                {
                  OFFSET -0.0863 -0.0161 -0.0419
                  CHANNELS 3 Zrotation Xrotation Yrotation
                  JOINT Joint44
                  {
                    OFFSET -0.0162 -0.0001 -0.0120
                    CHANNELS 3 Zrotation Xrotation Yrotation
                    JOINT Joint45
                    {
                      OFFSET -0.0165 -0.0007 -0.0110
                      CHANNELS 3 Zrotation Xrotation Yrotation
                      End Site
                      {
                        OFFSET -0.0165 -0.0007 -0.0110
                      }
                    }
                  }
                }
                JOINT Joint46
                {
                  OFFSET -0.0999 -0.0107 -0.0248
                  CHANNELS 3 Zrotation Xrotation Yrotation
                  JOINT Joint47
                  {
                    OFFSET -0.0290 0.0016 -0.0050
                    CHANNELS 3 Zrotation Xrotation Yrotation
                    JOINT Joint48
                    {
                      OFFSET -0.0236 -0.0012 -0.0076
                      CHANNELS 3 Zrotation Xrotation Yrotation
                      End Site
                      {
                        OFFSET -0.0236 -0.0012 -0.0076
                      }
                    }
                  }
                }
                JOINT Joint49
                {
                  OFFSET -0.0397 -0.0214 0.0306
                  CHANNELS 3 Zrotation Xrotation Yrotation
                  JOINT Joint50
                  {
                    OFFSET -0.0191 0.0007 0.0247
                    CHANNELS 3 Zrotation Xrotation Yrotation
                    JOINT Joint51
                    {
                      OFFSET -0.0231 -0.0056 0.0141
                      CHANNELS 3 Zrotation Xrotation Yrotation
                      End Site
                      {
                        OFFSET -0.0231 -0.0056 0.0141
                      }
                    }
                  }
                }
              }
            }
          }
        }
      }
    }
  }
}
MOTION
Frames: 7
Frame Time: 0.0333
0.0000 0.0000 0.0000 126.1585 69.9468 166.6695 14.5283 -17.1259 -43.7512 5.2534 10.3833 -27.1381 -5.7055 -10.4110 -15.2013 -0.3349 -0.0620 0.5529 -9.4609 -25.0342 28.5219 23.0551 27.7055 -4.1425 15.6318 -10.2930 48.5785 0.5484 -0.7196 -0.0834 17.8136 41.2171 2.2355 22.9412 16.0238 4.0270 -15.5600 -24.9473 33.0978 -3.3717 -9.3032 8.9367 2.0475 7.3041 -18.1108 -34.3544 -15.5604 14.6004 -46.3585 -22.1678 -26.5926 -9.2829 4.7771 -85.3253 -1.2446 -29.1041 3.0124 -23.2615 5.9135 3.3720 -42.8043 7.2582 -1.2721 -11.4703 -4.7882 -5.6377 -30.2591 -7.5062 0.8287 -40.6222 -8.6933 -0.2274 -19.7727 -0.4039 -5.0263 -40.3200 -20.8840 -19.1575 -29.9239 -10.9649 -6.5630 -5.4177 -21.3002 -4.3886 -36.8289 -5.7785 -6.9049 -37.1547 -15.0267 -8.5161 -22.8087 -8.2376 -9.5825 -16.6162 46.4416 24.2600 3.6576 -28.0834 2.2759 -17.8618 30.1166 8.1363 22.2335 17.9203 53.6815 5.4833 8.9975 23.4650 -5.9969 -19.8065 40.4308 -13.4799 -23.5396 -3.1455 24.7593 5.0976 -4.1253 43.0046 7.5278 0.7101 10.8544 -5.4045 5.8323 30.1042 -6.9529 -0.7669 40.1063 -8.3564 0.2475 19.7877 -0.1644 5.5520 39.4940 -20.5529 19.3673 29.8712 -10.8428 6.7722 5.4189 -21.2139 4.3208 36.1594 -6.2025 7.4232 38.3556 -15.0441 8.5481 21.9894 -8.6142 8.9580 15.9095 46.9608 -23.6552 -4.2409 -28.8738 -2.1616 18.3453 29.4559 -8.0197
0.0000 0.0000 0.0000 125.9034 69.8752 166.9888 14.3927 -17.1799 -43.7573 5.1490 10.4711 -27.2647 -5.7812 -10.3966 -15.0570 -0.2625 -0.0653 0.4752 -9.9929 -25.1780 28.0095 22.9404 27.6711 -4.1025 15.4830 -10.2521 48.3009 0.5729 -0.7050 -0.1556 18.2152 41.1768 2.0658 22.8835 16.1391 4.1804 -15.8325 -25.1931 33.4424 -3.3374 -9.2207 8.9105 1.8496 7.1842 -17.9548 -34.5113 -15.4545 14.5113 -46.2341 -22.1849 -26.4503 -9.2346 4.7390 -85.8730 -1.1838 -29.1499 2.7902 -23.3036 5.8100 3.4314 -42.7381 7.2527 -1.3028 -11.5437 -4.8010 -5.6676 -30.2451 -7.5429 0.8899 -40.6057 -8.7185 -0.1737 -19.6702 -0.3681 -4.9824 -40.3661 -20.8564 -19.2174 -29.8814 -10.9247 -6.6292 -5.4188 -21.3124 -4.5364 -36.7565 -5.7903 -6.8420 -37.2584 -15.0203 -8.6897 -22.6731 -8.1301 -9.6326 -16.5719 46.5564 24.2575 3.6828 -27.9293 2.1790 -18.0866 30.0800 8.2534 22.1230 17.8212 53.6903 5.0801 8.8664 23.5388 -5.9386 -19.7671 40.7325 -13.3856 -23.5497 -2.9771 24.7498 5.0590 -4.1848 43.0552 7.4789 0.6566 10.7564 -5.3805 5.7229 30.0189 -6.9371 -0.8625 40.0475 -8.3708 0.1761 19.7238 -0.2649 5.5504 39.5186 -20.5697 19.3979 29.8621 -10.8208 6.7351 5.3685 -21.1734 4.2275 36.0905 -6.1707 7.4262 38.2561 -15.0174 8.4696 21.8545 -8.6973 8.9431 15.7866 46.9675 -23.6212 -4.1404 -28.8868 -2.0182 18.3976 29.3869 -8.1301
0.0000 0.0000 0.0000 125.2975 69.9074 167.5595 14.2601 -17.2682 -43.8728 5.2454 10.5356 -27.7062 -5.8031 -10.5165 -15.2407 -0.2954 -0.1230 0.4439 -10.2072 -25.1760 28.0311 23.0129 27.7208 -4.2482 15.4840 -10.2229 48.6474 0.5527 -0.6946 -0.1678 19.1759 41.4548 1.5601 23.0115 16.3613 4.3012 -16.1235 -25.7160 34.0587 -3.5090 -9.0923 9.0250 1.7307 7.1413 -18.1689 -34.6224 -15.5530 14.5138 -46.1147 -22.4194 -26.5110 -9.3690 4.8949 -86.1545 -1.1280 -29.1970 2.7384 -23.2991 5.7752 3.5029 -42.6781 7.2333 -1.3285 -11.5440 -4.8196 -5.6352 -30.2106 -7.5476 0.9687 -40.5890 -8.7472 -0.1899 -19.6195 -0.2978 -4.9577 -40.3848 -20.8518 -19.2385 -29.9451 -10.9276 -6.7034 -5.4283 -21.1961 -4.6132 -36.7288 -5.8356 -6.7954 -37.3866 -14.9974 -8.7847 -22.6026 -8.1155 -9.6266 -16.5450 46.5013 24.2865 3.6314 -27.7907 2.0661 -18.1127 30.0462 8.3114 21.8487 17.8138 54.0567 4.7478 8.9282 23.6910 -5.8624 -19.6868 40.9414 -13.2962 -23.6383 -2.9960 24.6981 5.0590 -4.2225 43.1630 7.4898 0.6860 10.7108 -5.3494 5.6763 30.1219 -6.8614 -0.9395 39.9887 -8.3859 0.2151 19.7739 -0.3031 5.5877 39.5284 -20.5898 19.4198 29.8425 -10.8341 6.7086 5.3738 -21.1445 4.2811 36.0791 -6.1025 7.4572 38.2576 -14.9874 8.5105 21.7999 -8.7027 8.9750 15.7734 46.9117 -23.6249 -4.0187 -28.8961 -1.9342 18.4811 29.3230 -8.2307
0.0000 0.0000 0.0000 124.7748 69.9575 167.9431 14.1076 -17.3736 -44.0797 5.4001 10.4994 -28.1253 -5.8251 -10.7433 -15.5450 -0.3890 -0.1875 0.4438 -10.3267 -25.1041 28.3669 23.2380 27.8258 -4.3758 15.5269 -10.2008 49.1386 0.4969 -0.6844 -0.1554 20.2855 41.8763 1.1421 23.2321 16.6021 4.3890 -16.3332 -26.2126 34.6756 -3.7721 -9.0558 9.2023 1.6381 7.0647 -18.5936 -34.7004 -15.7884 14.5772 -46.0525 -22.6881 -26.6957 -9.5517 5.1048 -86.2617 -1.0221 -29.1669 2.7339 -23.2705 5.8210 3.5285 -42.6328 7.2259 -1.3544 -11.5030 -4.8464 -5.5771 -30.1731 -7.5225 1.0374 -40.5797 -8.7750 -0.2175 -19.6388 -0.2947 -4.9368 -40.3760 -20.8481 -19.2141 -30.0113 -10.9715 -6.7279 -5.4434 -21.0663 -4.6014 -36.7415 -5.8914 -6.7437 -37.4461 -14.9651 -8.8231 -22.6466 -8.1762 -9.6446 -16.5265 46.4086 24.3011 3.5820 -27.7235 2.0098 -18.0029 30.0885 8.3202 21.5936 17.8332 54.5221 4.2673 9.0690 23.8146 -5.8528 -19.5340 41.0956 -13.2824 -23.7687 -3.1779 24.6189 5.0815 -4.2299 43.2298 7.5197 0.7613 10.7449 -5.3364 5.6657 30.2971 -6.8485 -0.9642 39.9007 -8.3876 0.1900 19.8343 -0.2602 5.6353 39.5520 -20.5759 19.4529 29.8433 -10.8733 6.6698 5.3787 -21.1470 4.3704 36.1387 -6.0780 7.4510 38.2946 -14.9964 8.6042 21.7999 -8.7107 9.0087 15.8540 46.8753 -23.7145 -3.9618 -28.8814 -1.9294 18.5505 29.2907 -8.2485
0.0000 0.0000 0.0000 124.6538 70.0127 167.8366 13.9424 -17.4272 -44.2381 5.5075 10.4726 -28.3349 -5.8261 -10.9194 -15.7290 -0.4408 -0.2158 0.4506 -10.6160 -25.0371 28.5832 23.4712 27.9346 -4.3834 15.5030 -10.2205 49.2817 0.4432 -0.6782 -0.1797 21.2546 42.3246 1.0032 23.4153 16.7839 4.4837 -16.4422 -26.4980 35.0852 -3.9737 -9.1221 9.2755 1.5394 6.8787 -18.8749 -34.7311 -15.9303 14.6188 -46.0323 -22.8223 -26.8158 -9.6420 5.2384 -86.4085 -0.9426 -29.0588 2.5618 -23.2896 5.8582 3.5106 -42.6457 7.2473 -1.3865 -11.4829 -4.8650 -5.5457 -30.1851 -7.4848 1.0661 -40.5340 -8.8244 -0.2335 -19.6467 -0.3421 -4.9546 -40.3597 -20.8401 -19.1710 -30.0272 -11.0153 -6.7216 -5.4157 -20.9886 -4.5655 -36.7499 -5.9439 -6.7068 -37.4704 -14.9413 -8.8604 -22.7441 -8.2406 -9.6382 -16.5837 46.3882 24.3658 3.5704 -27.7857 2.0332 -17.8649 30.2034 8.3227 21.4824 17.8324 54.7886 3.6629 9.1960 23.8625 -5.8528 -19.3531 41.2187 -13.2711 -23.8554 -3.3487 24.5432 5.0768 -4.2413 43.2776 7.5016 0.8097 10.7784 -5.3363 5.6576 30.3902 -6.8955 -0.9602 39.8874 -8.4189 0.1292 19.8444 -0.2061 5.6424 39.5805 -20.5605 19.5265 29.8509 -10.8424 6.6775 5.3356 -21.1548 4.4050 36.1793 -6.1537 7.3981 38.3170 -15.0243 8.6710 21.8004 -8.6902 8.9987 15.9656 46.8423 -23.8763 -3.9730 -28.8491 -1.9368 18.5274 29.3256 -8.2120
0.0000 0.0000 0.0000 124.8162 70.1239 167.4036 13.7629 -17.3452 -44.3307 5.5119 10.4605 -28.3700 -5.8252 -11.0124 -15.7250 -0.4414 -0.2003 0.4671 -11.1041 -25.0071 28.5385 23.6799 28.0220 -4.3757 15.3933 -10.3577 49.0611 0.4100 -0.6919 -0.2041 22.0141 42.6552 1.0192 23.5772 16.9688 4.5894 -16.5078 -26.6243 35.3083 -4.1385 -9.2439 9.2440 1.4100 6.5587 -18.9676 -34.7142 -15.9171 14.6245 -46.0302 -22.8009 -26.7664 -9.6203 5.2806 -86.7389 -0.8856 -28.8845 2.1254 -23.3335 5.8930 3.4710 -42.6816 7.3006 -1.4129 -11.4614 -4.8739 -5.5392 -30.2212 -7.4546 1.0786 -40.4892 -8.8771 -0.2544 -19.6072 -0.3719 -4.9655 -40.3667 -20.8257 -19.1280 -29.9725 -11.0307 -6.6896 -5.4030 -20.9763 -4.5081 -36.7465 -5.9590 -6.6996 -37.4593 -14.9432 -8.8779 -22.8292 -8.2688 -9.6203 -16.6532 46.4528 24.4480 3.6109 -27.8635 2.1018 -17.8065 30.3174 8.3183 21.4778 17.7218 54.8397 2.9913 9.2004 23.9550 -5.8378 -19.2339 41.3535 -13.2952 -23.8267 -3.4011 24.5216 5.0612 -4.2515 43.2578 7.4600 0.8090 10.7357 -5.3570 5.6554 30.3654 -6.9475 -0.9505 39.9489 -8.4644 0.1215 19.8314 -0.1747 5.6189 39.6210 -20.5644 19.6142 29.8576 -10.7859 6.6724 5.2993 -21.1455 4.3901 36.1671 -6.3121 7.3579 38.2781 -15.0417 8.6502 21.8351 -8.6904 8.9766 16.0103 46.7917 -23.9781 -4.0259 -28.8004 -1.9509 18.4480 29.3947 -8.1676
0.0000 0.0000 0.0000 124.9336 70.2725 167.0998 13.5885 -17.1740 -44.4126 5.4423 10.4117 -28.3235 -5.8314 -11.0754 -15.6321 -0.4282 -0.1894 0.4845 -11.6865 -24.9468 28.3863 23.7972 28.0867 -4.3762 15.2214 -10.5906 48.6393 0.4091 -0.6828 -0.1928 22.6321 42.7868 0.9922 23.7984 17.2659 4.7017 -16.6410 -26.7516 35.5006 -4.2569 -9.3944 9.1923 1.2787 6.1908 -18.9908 -34.6827 -15.8280 14.5898 -46.0187 -22.7692 -26.5777 -9.5331 5.2268 -87.2577 -0.8088 -28.6984 1.5787 -23.3595 5.9019 3.4517 -42.7129 7.3416 -1.4246 -11.4271 -4.8908 -5.5335 -30.2527 -7.4266 1.1060 -40.4992 -8.9136 -0.2552 -19.5551 -0.2996 -4.9983 -40.3782 -20.8179 -19.0955 -29.9315 -11.0083 -6.6700 -5.3913 -21.0067 -4.4677 -36.7241 -5.9722 -6.7223 -37.4199 -14.9845 -8.8963 -22.8091 -8.2707 -9.6057 -16.6847 46.5211 24.5000 3.6658 -27.8764 2.1183 -17.8748 30.4309 8.3455 21.5253 17.6062 54.7682 2.2944 9.0750 24.1322 -5.8091 -19.1732 41.6205 -13.4328 -23.7452 -3.3885 24.5467 5.0659 -4.2427 43.2443 7.4001 0.7755 10.6764 -5.3392 5.6318 30.2922 -6.9718 -0.9601 40.0428 -8.5031 0.1127 19.8091 -0.1754 5.6046 39.6492 -20.6022 19.6698 29.8753 -10.7610 6.7199 5.2773 -21.1532 4.3108 36.1873 -6.3830 7.3757 38.2043 -15.0416 8.6025 21.8574 -8.7412 8.9363 15.9739 46.7217 -23.9690 -4.0690 -28.7745 -1.9658 18.3582 29.4618 -8.1269
